<svg id="グループ_28" data-name="グループ 28" xmlns="http://www.w3.org/2000/svg" width="105.144" height="27.258" viewBox="0 0 105.144 27.258">
  <g id="グループ_10" data-name="グループ 10" transform="translate(31.845 3.279)">
    <g id="グループ_9" data-name="グループ 9">
      <path id="パス_11" data-name="パス 11" d="M584.7,319.715V342.4h5.354V319.715Zm11.051,0h-5.24a20,20,0,0,1,3.333,3.872,14.669,14.669,0,0,1,1.656,7.257,15.28,15.28,0,0,1-.971,5.391,13.129,13.129,0,0,1-1.923,3.892c-.748.869-2.279,1.627-2.518,2.274h5.664a17.436,17.436,0,0,0,3.975-11.326A16.778,16.778,0,0,0,595.752,319.715Zm-5.7,22.686v.166a.47.47,0,0,1,.032-.166Zm0-23.282v.6h.457A2.827,2.827,0,0,1,590.055,319.119Zm19.193,8.1a3.478,3.478,0,1,0,3.479,3.478A3.472,3.472,0,0,0,609.249,327.223Zm11.536-7.508L616.529,342.4h4.322l.626-3.52.052.03,3.43-19.2Zm.923,19.3a13.273,13.273,0,0,1,3.38,3.33,16.393,16.393,0,0,1,3.282-3.33Zm7.617-19.3H625.15l3.44,19.158.044-.028.659,3.556h4.3Zm-7.8,19.2-.02.109h.2Zm3.526-19.728-.1.533h.192Zm3.535,19.69c-.073.047-.146.1-.22.147h.247Zm12.259,3.528c.028.03.056.058.086.085.03-.027.061-.055.09-.085Zm2.13-3.355a8.273,8.273,0,0,1-1.954,3.355h4.461Zm-6.711-9.468c-1.177,2.959-1.766,4.286-1.766,6.452a11.635,11.635,0,0,0,1.766,6.37h4.581a8.639,8.639,0,0,1-1.7-2.505,8.113,8.113,0,0,1-.775-3.528,8.473,8.473,0,0,1,2.556-6.036,6.433,6.433,0,0,1,2.044,3.1l2.507-3.857Zm18.88,8.894a8.443,8.443,0,0,1-2.176,3.927,7.773,7.773,0,0,1-1.8-2.536,11.182,11.182,0,0,1-.792-3.38h4.765a13.026,13.026,0,0,0,1.7-6.131c0-.21-.007-.774-.017-.774h-8.56c-.592,1.832-1.026,2.324-1.3,3.214a11.035,11.035,0,0,0-.413,3.286,11.3,11.3,0,0,0,1.713,6.323h9.087a11.274,11.274,0,0,0,.643-1.129Zm-2.176-8.059a7.892,7.892,0,0,1-2.607,5.986Q650.448,332.361,652.972,330.414Z" transform="translate(-584.701 -319.119)" fill="#fff"/>
    </g>
  </g>
  <g id="グループ_14" data-name="グループ 14">
    <g id="グループ_13" data-name="グループ 13" transform="translate(0.65)">
      <g id="グループ_12" data-name="グループ 12">
        <path id="パス_12" data-name="パス 12" d="M518.67,480.144l-.042,0A.3.3,0,0,0,518.67,480.144Z" transform="translate(-496.743 -454.175)" fill="#fff"/>
        <path id="パス_13" data-name="パス 13" d="M369.75,478.8a1.534,1.534,0,0,0-.383-.1,7.345,7.345,0,0,0-1.833.322,7.71,7.71,0,0,1-1.59.341l-1.1-.008h-1.527c.04.141.091.212.152.388a4.923,4.923,0,0,1,1.039.283c.061,0,.317.006.764.025s.693.027.734.027a3.525,3.525,0,0,0,.458-.075,4.245,4.245,0,0,1,.443-.073.583.583,0,0,0,.168-.029.542.542,0,0,1,.168-.031,7.1,7.1,0,0,0,.857-.264,6.686,6.686,0,0,1,.87-.262,3.856,3.856,0,0,1,.5.131,3.027,3.027,0,0,0,.469.131c.122,0,.331-.068.331-.2v-.439c0-.038-.148-.058-.209-.058A1.389,1.389,0,0,1,369.75,478.8Z" transform="translate(-363.316 -452.934)" fill="#fff"/>
        <path id="パス_14" data-name="パス 14" d="M543.7,480.965a1.265,1.265,0,0,1,.465.073,2.713,2.713,0,0,0,.455.074,8.182,8.182,0,0,0,1.854-.235,1.109,1.109,0,0,0,.021-.527H546.4c-.835,0-1.576.06-2.7.12Z" transform="translate(-518.283 -454.351)" fill="#fff"/>
        <g id="グループ_11" data-name="グループ 11" transform="translate(12.593)">
          <path id="パス_15" data-name="パス 15" d="M468.732,298.267s0,.01,0,.014l.037-.01C468.781,298.268,468.732,298.269,468.732,298.267Zm.211,2.415c0-.027,0-.055-.007-.083q-.1-1.124-.2-2.249c0-.023,0-.045-.006-.069-1.713.451-3.54-2.9-5.249-2.362-.011,0-.331-.073-.331-.07a.812.812,0,0,0,.01.268,4.8,4.8,0,0,1-.038,1.828c-.006.085-.038.7-.035.724,0,0,.452-.224.465-.227,1.721-.54,3.7,2.755,5.426,2.246C468.994,300.685,468.945,300.685,468.943,300.682Zm-2.473-2.074a.24.24,0,0,1-.23-.062h0a.555.555,0,0,0,.183.333v.01l-.388.075v-.01a.57.57,0,0,0,.047-.376h0a.18.18,0,0,1-.206.109c-.231-.047-.211-.485-.156-.7a5.106,5.106,0,0,0,.006-.759c.089.062.4.423.509.537.083.085.342.321.372.466C466.635,298.4,466.655,298.571,466.47,298.608Z" transform="translate(-461.624 -295.848)" fill="#fff"/>
          <path id="パス_16" data-name="パス 16" d="M454.075,299.9c-.005-.057-.032-.322-.039-.4l.166-2.725c-.182-.433-.011-.265-.056-.544l-.792.069c.025.281-.091.452,0,.541a7.014,7.014,0,0,1,0,.911l.184,2.1a3.437,3.437,0,0,1,.006.578.7.7,0,0,1-.221.52,1.843,1.843,0,0,1-.578.4,3,3,0,0,1-.029.336c-.02.166-.031.277-.031.335a.955.955,0,0,0,.152.527,2.7,2.7,0,0,1,.322.423,7.475,7.475,0,0,1,.2.776c.021,0,.041.014.06.045s.073.043.153.043c-.06,0,.194-.137.765-.409a2.324,2.324,0,0,0,.641.263,3.448,3.448,0,0,0,.459-.819l.153-.059a4.835,4.835,0,0,0,.031-.731,6.14,6.14,0,0,0-.031-.7,1.379,1.379,0,0,0-1.265-.439c-.053,0-.138-.323-.154-.383A4.159,4.159,0,0,1,454.075,299.9Z" transform="translate(-452.685 -296.18)" fill="#fff"/>
        </g>
        <path id="パス_17" data-name="パス 17" d="M487.667,479.061a1.169,1.169,0,0,0,.274.074c.144,0,.276-.127.4-.381-.1-.135-.2-.264-.306-.38-.041-.058-.173-.087-.4-.087a6.439,6.439,0,0,0-.735.234,11.274,11.274,0,0,1-1.145.336,8.482,8.482,0,0,1-1.422.074,2.98,2.98,0,0,1-.412-.059,3.29,3.29,0,0,0-.413-.058,5.454,5.454,0,0,1-.794-.233,7.531,7.531,0,0,0-.764-.235,16.181,16.181,0,0,0-2.476.352c0,.018-.031.043-.092.072s-.081.17-.06.423a.949.949,0,0,0,.58.062.224.224,0,0,1,.215-.114h.7a5.358,5.358,0,0,1,1.5.212,4.6,4.6,0,0,0,1.009.211h.183a1.477,1.477,0,0,1,.352.049,1.655,1.655,0,0,0,.381.061c.043,0,.2-.022.474-.05s.445-.047.5-.047a10.887,10.887,0,0,0,1.086-.294c.662-.194,1.013-.293,1.053-.293A1.141,1.141,0,0,1,487.667,479.061Z" transform="translate(-462.97 -452.58)" fill="#fff"/>
        <path id="パス_18" data-name="パス 18" d="M419.6,480.906a11.967,11.967,0,0,0,1.9-.147,6.535,6.535,0,0,1,.672-.263c.225-.04.572-.122,1.04-.249.392-.107.631-.167.724-.184a.084.084,0,0,1,.04-.006l-.04.006a3.493,3.493,0,0,0,.9.256,4,4,0,0,0,.912.089c.1,0,.191-.059.332-.175v-.293a.369.369,0,0,1-.241-.074.67.67,0,0,0-.227-.072,18.06,18.06,0,0,0-2.054-.264,5.377,5.377,0,0,0-.753.2c-.437.138-.74.226-.9.264a10.959,10.959,0,0,1-1.957.262c-.039,0-.3-.028-.763-.086L417.945,480c-.122-.117-.183-.049-.183.2a.65.65,0,0,0,.061.234.754.754,0,0,1,.352.088c.112.058.219.117.321.175A4,4,0,0,0,419.6,480.906Z" transform="translate(-410.09 -453.648)" fill="#fff"/>
        <path id="パス_19" data-name="パス 19" d="M506.443,438.931v-.292c-.141.317-.127.561-.206.736-.007.011.048.02.048.025s-.01-.017-.006-.025a.571.571,0,0,1,.109-.166C506.489,439.1,506.443,439.01,506.443,438.931Z" transform="translate(-486.098 -418.519)" fill="#fff"/>
      </g>
    </g>
    <path id="パス_20" data-name="パス 20" d="M383.07,343.587a8.679,8.679,0,0,1,.705-.7c.009-.061.083-.116.1-.159l-.413-.2c.088-.078-.592-.1-.552-.111l-.54.108a6.857,6.857,0,0,0-.085.75c.056.352.092.743.092.743a1.042,1.042,0,0,1-.431.73.985.985,0,0,0-.062.349c0,.217.035.362.137.44a2.131,2.131,0,0,1,.45.527.452.452,0,0,1-.217.03c.2,0-.318-.156-1.6-.468l-.1.147v.24h.023a6.437,6.437,0,0,0,1.284,1.284c-.041.138-.1.379-.183.73-.041.254-.111.624-.214,1.112a4.429,4.429,0,0,1-.185.788,1.184,1.184,0,0,0,0,.411.491.491,0,0,1-.213.437c0,.156-.01.371-.031.645a1.3,1.3,0,0,0-.214.321,1.209,1.209,0,0,0-.428.116c-.08-.078-.121-.135-.121-.175a4.618,4.618,0,0,1,.28-.731,6.421,6.421,0,0,0,.285-.7v-2.486c0,.058-.038.028-.1-.089-.061-.311-.125-.743-.187-1.286-.039-.176-.093-.42-.154-.733a.189.189,0,0,1-.124-.145,2.37,2.37,0,0,0-.265-.38c.02-.1.125-.255-.3-.468v-.234c0-.021.378-.061.664-.118a2.37,2.37,0,0,0-.082-.321,2.668,2.668,0,0,1-.093-.321c-.224-.02-.544-.068-.972-.147-.633-.214-1.606-.517-2.932-.906-.3-.079-.721-.2-1.251-.354a2.213,2.213,0,0,1-.916-.349,1.636,1.636,0,0,1-.214-.764c-.018-.333-.038-.63-.059-.912h-.49a.331.331,0,0,0-.306.18,2.108,2.108,0,0,1-.244.879c-.062.078-.113.1-.154.1,0-.007-.612-.218-1.835-.621a1.142,1.142,0,0,0-.213-.149q-1.467-.526-4.1-1.436a2.321,2.321,0,0,0-.4-.2,6.905,6.905,0,0,1-1.007-.22q-.7-.19-.612-.19c-.061,0-.054.008-.1.028s-.045.03-.045.03v.38a15,15,0,0,1,5.1,2.984c.061.038.121.1.242.175.165.176.383.41.689.7a1.137,1.137,0,0,0,.023.234c.528.39.789.73.79,1.023-.007,0-.141.344-.4,1.024a5.318,5.318,0,0,1-.4,1.23c-.163.544-.368,1.336-.612,2.369a10.894,10.894,0,0,0-.245,1.4.5.5,0,0,1-.154.147,5.252,5.252,0,0,0-.061.7.282.282,0,0,1-.154.148c-.02.038.01.107.093.2-.042.021-.072.037-.093.045a5.475,5.475,0,0,0-.214.8q-.061.294-.213.851c0,.155-.011.388-.031.7a.291.291,0,0,1-.245.12c-.141,0-.386-.158-.733-.469a2.585,2.585,0,0,1-.581-.6,3.108,3.108,0,0,1-.245-.688c-.021-.33-.03-.838-.03-1.52q-.093-.292-.612-.321c-.51-.02-.785-.03-.827-.03a9.267,9.267,0,0,0,1.194-.469q.275-.232.857-.7c.02-.216.072-.537.154-.967s.12-.662.12-.7a11.9,11.9,0,0,0-.12-1.463.486.486,0,0,0-.128-.2.813.813,0,0,1,.634-.175v-.176c-.282-.117-.249-.244-.452-.38a18.583,18.583,0,0,0-2.734-.761,1.3,1.3,0,0,1-.516-.293c-.02-.1.038-.194.461-.292l-.039-1.229a1.123,1.123,0,0,1-.462-.323,2.188,2.188,0,0,1-.163-.514,1.644,1.644,0,0,1-.049-.437,1.082,1.082,0,0,1,.679-.451,2.882,2.882,0,0,0,.585-.286s-.207-.23-.24-.283a1.449,1.449,0,0,0-.566-.047.36.36,0,0,1-.121-.158,4.172,4.172,0,0,0-.519-.118c-.069-.145-.12-.254-.14-.251l-.392.072c-.12.021-.118.386-.1.62a3.739,3.739,0,0,1,.065,1.334,6.016,6.016,0,0,0,.083.709c-.052.089-.159.1-.323.12a2.889,2.889,0,0,1-.154.488,2.047,2.047,0,0,0,.49.655.236.236,0,0,1,.061.165c.042.041,0,.07-.121.07-.041,0-.516-.172-1.423-.523a14.464,14.464,0,0,0-1.451-.523.517.517,0,0,0-.366.147.709.709,0,0,0,.123.294,1.169,1.169,0,0,1,.612.321,2.256,2.256,0,0,1,.671.352,8.259,8.259,0,0,1,.95,1.4.365.365,0,0,1,.173.187s.007.011.007.028a.276.276,0,0,0-.007-.028c-.02-.013-.077.147-.173.485-.062.2-.024.565-.1,1.112s-.4,1.3-.686,2.253v.32c0,.158-.2.265-.445.323-.2-.117-.361-.244-.361-.38a1.4,1.4,0,0,1,.063-.423,1.554,1.554,0,0,0,.079-.4c0-.02-.042-.176-.114-.468a3.2,3.2,0,0,1-.11-.644,1.609,1.609,0,0,0-.217-.293,1.06,1.06,0,0,0-.762-.292c-.062,0-.206.147-.43.44a1.394,1.394,0,0,1-.046.248,1.358,1.358,0,0,0-.048.278c0,.721.137,1.229.7,1.522v.233c.141.021,0,.03-.12.03a2.1,2.1,0,0,1-.487-.123,2.333,2.333,0,0,0-.581-.151H358.7v.654a2.172,2.172,0,0,1,.569.733c.021.1.046.234.087.409a3.272,3.272,0,0,0,.578.876,6.429,6.429,0,0,0,.944.176,1.5,1.5,0,0,0,.368.175l2.659.147a4.47,4.47,0,0,0,.442-.072,3.607,3.607,0,0,1,.473-.073,5.513,5.513,0,0,1,1.65.5h-.061c-.327,0-.876.054-1.65.016-.748-.032-1.157-.021-1.223-.016h-.4c-.041,0-.245-.072-.612-.141s-.571-.141-.612-.141H361.8v.6c0,.234.11.509.151.821a7.238,7.238,0,0,0,.3,1.4c.327.586.478.906.519.967a3.469,3.469,0,0,0,.84.936,3.734,3.734,0,0,1-1.933.352c-.041,0-.182-.01-.416-.031s-.386-.03-.445-.03c-.265,0-.434.07-.5.206a.4.4,0,0,1-.383.206c-.1,0-.173-.079-.214-.235a.617.617,0,0,0-.093-.2c-.039-.058-.1-.137-.183-.234.1-.041.052-.059-.154-.059.023,0-.02.039-.121.117s-.123.245-.062.5a6.8,6.8,0,0,0,1.04.469,8.4,8.4,0,0,0,1.313.086c.063,0,.709-.1,1.943-.292s1.88-.293,1.94-.293a5.759,5.759,0,0,1,1.284.235,1.051,1.051,0,0,1,.306.1,4.358,4.358,0,0,0,1.436.3h1.038a.951.951,0,0,0,.337-.011,1.5,1.5,0,0,1,.368-.032,8.209,8.209,0,0,0,1.482-.2,8.715,8.715,0,0,1,1.6-.2c.082,0,.723.061,1.926.178l2.994-.379a31.888,31.888,0,0,1,3.161.468,3.876,3.876,0,0,0,1.394-.29,3.469,3.469,0,0,1,1.223-.293,4.9,4.9,0,0,1,.734.131,4.861,4.861,0,0,0,1.2.134,2.018,2.018,0,0,0,1.33-.295v-.292s.042-.023-.03-.073-.083-.073-.145-.073-.273.01-.69.03-.644.03-.706.03a.365.365,0,0,1-.238-.023,4.759,4.759,0,0,0-1.277-.083h-.152c-.082,0-.142-.1-.185-.108s-.061-.085-.061-.163a.966.966,0,0,1,.4-.6,1.75,1.75,0,0,1,0-.33,20.353,20.353,0,0,1,.977-1.909v-.693h-1.146a8.694,8.694,0,0,1,.937-.075c.062,0,.183.014.366.034s.307.03.366.03a1.944,1.944,0,0,1,.337-.234c.082-.293.255-.788.4-1.491.021-.038.151-.058.151-.058v-.759a.786.786,0,0,1-.166-.031.747.747,0,0,0-.228-.03,1.417,1.417,0,0,1-.5-.058,1.851,1.851,0,0,1,.418-.323,4.956,4.956,0,0,1,.48-.759v-2.721c-.564-.175-1.589-.458-2.935-.848.062-.155-.024-.234.4-.234v-1.316c0-.059-.158-.107-.228-.148s-.168-.076-.168-.117a1.057,1.057,0,0,1-.4-.145c0-.087,0-.177-.006-.274Zm-21.548,7.978a1.553,1.553,0,0,1-.734-.058c.1-.175.244-.389.427-.643a1.315,1.315,0,0,1,.459.175C361.594,351.061,361.542,351.235,361.522,351.565Zm1.406.206c-.282.059-.2.089-.259.089a.483.483,0,0,1-.269-.073.45.45,0,0,0-.176-.075v-.5a3.013,3.013,0,0,1,.7-.086Zm.014-1.513a5.581,5.581,0,0,0-.565-.1.335.335,0,0,1-.154-.245,9.234,9.234,0,0,0,.734-1.646,1.019,1.019,0,0,0-.021-.648c.041-.018.132-.061.132-.118v-.207a.237.237,0,0,1,.111-.173c.021-.02.1-.059.179-.118a.459.459,0,0,0,.1.22.458.458,0,0,1,.1.19,4.037,4.037,0,0,0,.125.878,5.492,5.492,0,0,0-.151,1.484c.02.079.175.186.461.609h-.582C363.376,350.383,363.217,350.307,362.942,350.257Zm1.451,1.675H364a.911.911,0,0,0-.062-.155.392.392,0,0,1-.062-.163.537.537,0,0,1,.062-.216.52.52,0,0,0,.062-.186.762.762,0,0,0,.228-.044.97.97,0,0,1,.168-.042c.144.137.214.211.214.272C364.608,351.633,364.537,351.933,364.394,351.933Zm1.513-.059a1.874,1.874,0,0,1-.444.044,3.088,3.088,0,0,1-.031-.652.718.718,0,0,0,.307-.037h.061c.082,0,.163.28.245.593C366.065,351.822,366.02,351.844,365.907,351.874Zm9.942-5.573c.128-.514.507-2.163.507-2.163a5.986,5.986,0,0,1,1.453,1.7,13.065,13.065,0,0,1,.884,1.7c.248.6.655,2.245-.218,2.279-.449.02-.635.023-.871-.21l0,0c-.168.554.29.995.665,1.265v.035l-1.833.073,0-.037a1.138,1.138,0,0,0,.42-1.306l-.01,0a.951.951,0,0,1-1.012.282C374.786,349.636,375.624,347.208,375.849,346.3Zm-2.377,1.9c.1.156.225.361.368.616a8.407,8.407,0,0,1,.213,1.549c0,.041-.041.3-.123.792a21.481,21.481,0,0,1-.5,2.836,2.383,2.383,0,0,1-.22.206v-.293a3.753,3.753,0,0,1,.083-.645c.072-.369.106-.633.125-.789a12.875,12.875,0,0,0,.055-2.164.323.323,0,0,0,.149-.263c0-.018-.07-.441-.214-1.272a14.488,14.488,0,0,1-.214-1.544A3.559,3.559,0,0,0,373.472,348.2Zm-3.125,6.318a.24.24,0,0,0-.1.045.326.326,0,0,1-.166.044,1.273,1.273,0,0,1-.275-.044.838.838,0,0,1-.244-.089c-.041-.028-.111-.082-.214-.159q.091-.41.214-1.2a2.7,2.7,0,0,0,.183-.206,6.847,6.847,0,0,1,.093-.965.2.2,0,0,0,.092-.087,4.468,4.468,0,0,1,.123-1.084q.459-1.492,1.16-4.329a.8.8,0,0,0,.109-.249,5.146,5.146,0,0,0,.106-.541,1.612,1.612,0,0,0,.092-.248c.041-.127.063-.337.124-.628l.307.087v.232s-.134.021-.154.059c-.347,1.873-.81,4.661-1.422,8.367A4.734,4.734,0,0,0,370.347,354.52Zm2.59-7.531a.708.708,0,0,0-.107.073,8.807,8.807,0,0,0-.183.907c-.08,1.326-.138,2.115-.138,2.37-.041,0-.14.017-.14.058v.876c0,.1.048.127.108.086-.041.588-.093,1.4-.176,2.431-.018,0-.045.018-.087.059-.02.45-.028.847-.028,1.2a5.887,5.887,0,0,0-1.008-.058.531.531,0,0,0-.031-.161.74.74,0,0,1-.028-.19c0-.058.025-.244.075-.557a4.741,4.741,0,0,0,.078-.614.2.2,0,0,0,.093-.089,4.2,4.2,0,0,1,.182-1.491.209.209,0,0,1-.062-.292q.063-.469.2-1.272t.413-2.355c.062-.313.163-.733.306-1.257a4.477,4.477,0,0,0,.031-.995.538.538,0,0,0,.092.232.229.229,0,0,0,.061-.175c.041.1.132.3.275.614a1.707,1.707,0,0,1,.154.438A.169.169,0,0,1,372.937,346.988Zm4.357,7.884a10.3,10.3,0,0,1-2.814.438q-.059,0-.427-.03c-.244-.018-.4-.03-.458-.03a.312.312,0,0,0-.154.059.332.332,0,0,1-.183.059c-.176,0-.268-.192-.273-.572q.027.309.457.309a8.233,8.233,0,0,0,1.284-.249,8.152,8.152,0,0,1,1.866-.248,4.58,4.58,0,0,0,.672-.176,6.025,6.025,0,0,1,.641-.175.147.147,0,0,1,.137.073.154.154,0,0,0,.14.07,1.262,1.262,0,0,0,.565-.348,2.518,2.518,0,0,0,.473-.468c.123-.078.185-.128.185-.147,0,.038.039.087.121.147A3.7,3.7,0,0,1,377.294,354.872Zm7.732-2.247c-.1.156-.4.3-.4.317v-.614c0-.02.011.028.093-.254h.4A4.818,4.818,0,0,0,385.025,352.625Zm-3.5.082c0-.1.309-.147.511-.147l.118.294a.466.466,0,0,1-.285.278,2.746,2.746,0,0,0-.345.073Zm-1.127.089c.141-.2.271-.213.555-.059a.661.661,0,0,0-.151.526,1.146,1.146,0,0,1-.232-.028c-.093-.018-.031-.028-.172-.028Zm2.211,1.189c-.489.079-1.233.214-2.232.311l-.244-.032a17.162,17.162,0,0,1,1.9-.369q.845-.14,1.46-.218A8.462,8.462,0,0,0,382.612,353.984Zm.889-.954a3.218,3.218,0,0,1-.423.056V352.5a1.613,1.613,0,0,1,.423-.117Zm-.95-1.377c-.237,0-.348-.013-.331-.039-.1.066-.1.1-.137.1a.149.149,0,0,1-.132-.147v-.351c-.423-.349,0-1.113.386-2.522h.092a1.632,1.632,0,0,1,.213.823q.032.38.031.967-.061.85-.061.878a.761.761,0,0,1,.092.148.518.518,0,0,0,.154-.028.588.588,0,0,1,.183-.03,3.005,3.005,0,0,0,1.5-.235,2.311,2.311,0,0,0,.43-.144.215.215,0,0,1-.031.087.237.237,0,0,0-.031.116,4.976,4.976,0,0,1-1.375.263C382.714,351.614,382.388,351.654,382.551,351.654Z" transform="translate(-358.701 -332.558)" fill="#fff"/>
  </g>
</svg>
