<svg xmlns="http://www.w3.org/2000/svg" xmlns:xlink="http://www.w3.org/1999/xlink" width="168" height="168" viewBox="0 0 168 168">
  <defs>
    <clipPath id="clip-path">
      <circle id="楕円形_2" data-name="楕円形 2" cx="84" cy="84" r="84" transform="translate(323 2511)" fill="#fff"/>
    </clipPath>
  </defs>
  <g id="マスクグループ_2" data-name="マスクグループ 2" transform="translate(-323 -2511)" clip-path="url(#clip-path)">
    <g id="楕円形_3" data-name="楕円形 3" transform="translate(291 2483)" fill="#fff" stroke="#707070" stroke-width="1">
      <ellipse cx="118.5" cy="114" rx="118.5" ry="114" stroke="none"/>
      <ellipse cx="118.5" cy="114" rx="118" ry="113.5" fill="none"/>
    </g>
    <g id="グループ_255" data-name="グループ 255" transform="translate(-170.596 1779.236)">
      <path id="パス_151" data-name="パス 151" d="M522.1,954.488c0-.615-10.607-24.58-13.827-33.8s-2.151-16.137-2.151-16.137-1.071-8.751,0-27.8,7.534-54.078,11.676-58.233,28.268-12.9,32.262-15.657c3.994-2.779,10.754-8.923,10.754-8.923.615-2.495,1.465-5.372,1.465-5.372l46.776,18.276c-.467.161,11.528,6.146,13.827,9.071s2.617,54.693,2.617,54.693l9.673-3.073a16.194,16.194,0,0,1,3.233.615c1.376.467,2.606,5.063,3.527,6.452s3.381,5.985,3.381,5.985,2.6,2.779,4.007,9.992-4.007,13.214-7.841,18.436-12.758.615-13.224.456,2.618,12.291,4.768,18.287,3.54,12.439,7.521,19.665c4.007,7.226-2.3,2.312-2.3,2.312s2,8.443,3.846,18.435Z" transform="translate(0 23.661)" fill="#231f20"/>
      <path id="パス_152" data-name="パス 152" d="M539.765,765.775c-.122.692-.238,1.18-.232,1.138-.3,2.157-.527,4.34-.62,6.615-.145,3.561-.448,7.114-.61,10.673-.019.39.156,2.339.248,5.848s2.323,6.22,2.424,6.755a20.551,20.551,0,0,1,.415,5.213c-.124,2.717.671,13.672.671,13.672s-1.027,1.837-2.061,3.593c0,0,7.273,11.264,10.263,14s7.344,6.233,8.033,6.265,2.63-.753,7.8-3.8,12.278-2.656,12.278-2.656-4.216-4.974-3.754-4.744c.988.494-.4-4.562,1.481-6.969,1.043-1.331,2.854-.711,4.985-1.713s5.549-9.52,6.678-13.559a37.627,37.627,0,0,0,.575-12.523c-.33-1.843-.842-3.682-.333-4.762s1.154-3.843.235-5.126-.005-8.379-.219-12.226-2.012-4.253-2.012-4.253,2.162-3.279.385-8.371c-.819-2.342-1.99-4.876-3.992-6.422.295,4.194-6.267-.67-8.378-1.3a31.812,31.812,0,0,0-14.529-.894c-3.764.655-8.191,1.441-11.283,3.86-3.406,2.664-5.2,5.367-9.19,7.743C540.43,760.989,540.074,764.032,539.765,765.775Z" transform="translate(19.913)" fill="#231f20"/>
      <path id="パス_153" data-name="パス 153" d="M540.95,788.565c-.053.647-1.362,4.406,1.711,11.574s20.894,40.353,23.556,53.464,7.579,36.667,5.736,46.295-17.82,38.92-17.82,38.92,14.736.409,18.225,1.024,14.141.615,14.141,0-2.664-37.282-6.351-62.272-10.037-52.85-10.037-52.85l-7.99-7.169,5.94-4.507s6.555,2.869,5.327,2.254c-3.756-1.879-6.2-5.217-10.287-6.679-4.9-1.755-9.124-5.8-12.656-9.527a74.8,74.8,0,0,1-5.338-6.529C544.609,791.9,540.911,789.029,540.95,788.565Z" transform="translate(21.331 23.661)" fill="#fff"/>
      <path id="パス_154" data-name="パス 154" d="M568.963,808.472c-.961-2.194-2.4-5.237-2.812-4.585-4.338,6.8-1.811,14.1-.113,21.24,1.539,6.47,2.915,13.112,5.132,19.392,2.458,6.966,11.472,30.522,11.472,29.907s0-23.352-2.458-38.714A61.35,61.35,0,0,0,573.3,816.2c-1.048-1.925-2.457-3.709-3.44-5.652C569.787,810.408,569.432,809.541,568.963,808.472Z" transform="translate(35.429 32.95)" fill="#fff"/>
    </g>
  </g>
</svg>
