<svg xmlns="http://www.w3.org/2000/svg" width="109.727" height="109.849" viewBox="0 0 109.727 109.849">
  <path id="パス_147" data-name="パス 147" d="M697.085,454.267s-4.192.524-7.91.974a8.146,8.146,0,0,0-2.476.619,3.031,3.031,0,0,0-4.005-1.687,38.26,38.26,0,0,0-9.371-22.362,3.017,3.017,0,0,0,1.735-4.057,8.014,8.014,0,0,0,2.189-1.314c2.949-2.312,6.282-4.9,6.282-4.9s1.968-.9-.484-3.356-3.352-.486-3.352-.486-2.591,3.34-4.9,6.288a8.029,8.029,0,0,0-1.313,2.19,3.01,3.01,0,0,0-4.069,1.764,38.219,38.219,0,0,0-22.466-9.184,3.019,3.019,0,0,0-1.577-4.227,8.1,8.1,0,0,0,.619-2.476c.456-3.72.98-7.91.98-7.91s.753-2.026-2.715-2.026-2.715,2.026-2.715,2.026.526,4.191.982,7.91a8.114,8.114,0,0,0,.618,2.476,3.047,3.047,0,0,0-1.932,2.825,2.975,2.975,0,0,0,.368,1.419,38.271,38.271,0,0,0-22.426,9.353,2.989,2.989,0,0,0-.759-1.319,3.043,3.043,0,0,0-3.363-.631,8.036,8.036,0,0,0-1.314-2.19c-2.305-2.953-4.9-6.288-4.9-6.288s-.9-1.967-3.352.486-.484,3.356-.484,3.356,3.334,2.587,6.282,4.9a8.187,8.187,0,0,0,2.189,1.314,3.038,3.038,0,0,0,.636,3.363,2.975,2.975,0,0,0,1.319.759,38.256,38.256,0,0,0-9.329,22.436,3.007,3.007,0,0,0-4.269,1.548,8.308,8.308,0,0,0-2.481-.619c-3.714-.45-7.906-.974-7.906-.974s-2.031-.753-2.031,2.715,2.031,2.715,2.031,2.715,4.192-.532,7.906-.982a8.093,8.093,0,0,0,2.481-.62,3.011,3.011,0,0,0,4.251,1.559,38.234,38.234,0,0,0,9.2,22.472,2.963,2.963,0,0,0-1.169.719,3.026,3.026,0,0,0-.636,3.356,8.266,8.266,0,0,0-2.189,1.314c-2.948,2.312-6.282,4.905-6.282,4.905s-1.968.9.484,3.352,3.352.484,3.352.484,2.593-3.334,4.9-6.282a8.185,8.185,0,0,0,1.314-2.19A3.007,3.007,0,0,0,619.1,486a38.311,38.311,0,0,0,22.425,9.407,3,3,0,0,0,1.617,4.139,7.821,7.821,0,0,0-.618,2.481c-.456,3.719-.982,7.906-.982,7.906s-.753,2.031,2.715,2.031,2.709-2.031,2.709-2.031-.526-4.186-.974-7.906a8.137,8.137,0,0,0-.619-2.481,3.035,3.035,0,0,0,1.927-2.826,3,3,0,0,0-.3-1.3,38.246,38.246,0,0,0,22.484-9.243,2.987,2.987,0,0,0,.643.964,3.047,3.047,0,0,0,3.363.635,8.177,8.177,0,0,0,1.313,2.19c2.307,2.948,4.9,6.282,4.9,6.282s.9,1.968,3.352-.484.484-3.357.484-3.357-3.333-2.587-6.282-4.9a8.248,8.248,0,0,0-2.189-1.314,3.024,3.024,0,0,0-.637-3.356,2.972,2.972,0,0,0-.957-.648,38.255,38.255,0,0,0,9.248-22.408,3,3,0,0,0,1.161.233A3.037,3.037,0,0,0,686.7,458.1a8.108,8.108,0,0,0,2.476.62c3.718.45,7.91.982,7.91.982s2.032.753,2.032-2.715S697.085,454.267,697.085,454.267Zm-53.848,22.974a7.327,7.327,0,0,0-.566,2.254c-.292,2.387-.612,4.98-.776,6.311a28.683,28.683,0,0,1-16.1-6.69c.824-1.063,2.417-3.111,3.895-5a7.283,7.283,0,0,0,1.2-1.99,2.772,2.772,0,0,0,3.064-.578,2.848,2.848,0,0,0,.544-.793,16.791,16.791,0,0,0,7.152,2.982,2.739,2.739,0,0,0-.168.928A2.776,2.776,0,0,0,643.238,477.241Zm3.632-3.462a16.729,16.729,0,0,0,7.216-2.885,2.627,2.627,0,0,0,.467.648,2.765,2.765,0,0,0,3.065.584,7.485,7.485,0,0,0,1.2,1.99c1.541,1.975,3.217,4.129,4,5.138a28.633,28.633,0,0,1-16.2,6.568c-.168-1.319-.49-3.929-.782-6.328a7.449,7.449,0,0,0-.566-2.254,2.724,2.724,0,0,0,1.6-3.462Zm11.607-6.154a2.661,2.661,0,0,0-.572-.431,16.754,16.754,0,0,0,3.1-7.159,2.759,2.759,0,0,0,3.165-1.693,7.363,7.363,0,0,0,2.259.56c2.627.322,5.506.683,6.667.829a28.692,28.692,0,0,1-6.877,16.185c-1-.783-3.176-2.476-5.168-4.029a7.5,7.5,0,0,0-2-1.2A2.756,2.756,0,0,0,658.476,467.625Zm14.654-12.709c-1.138.139-4.052.5-6.7.828a7.358,7.358,0,0,0-2.259.561,2.771,2.771,0,0,0-2.576-1.756,3.045,3.045,0,0,0-.513.052,16.8,16.8,0,0,0-2.949-7.3,1.929,1.929,0,0,0,.345-.28,2.754,2.754,0,0,0,.578-3.059,7.493,7.493,0,0,0,2-1.2c2.167-1.693,4.566-3.556,5.412-4.215A28.692,28.692,0,0,1,673.13,454.915Zm-27.294-19.763c.328-2.726.707-5.722.841-6.8a28.687,28.687,0,0,1,16.365,6.755c-.654.841-2.522,3.241-4.227,5.412a7.43,7.43,0,0,0-1.2,2,2.77,2.77,0,0,0-3.065.584,2.922,2.922,0,0,0-.263.322,16.848,16.848,0,0,0-7.31-3.012,2.439,2.439,0,0,0,.047-.427,2.778,2.778,0,0,0-1.758-2.58A7.459,7.459,0,0,0,645.836,435.152Zm-1.441,14.408a7.529,7.529,0,1,1-7.532,7.527A7.525,7.525,0,0,1,644.394,449.56Zm-2.558-21.182c.135,1.092.509,4.064.835,6.774a7.338,7.338,0,0,0,.566,2.254,2.776,2.776,0,0,0-1.756,2.58,2.625,2.625,0,0,0,.046.479,16.8,16.8,0,0,0-7.211,3.089,2.971,2.971,0,0,0-.362-.456,2.776,2.776,0,0,0-3.064-.578,7.47,7.47,0,0,0-1.2-2c-1.617-2.061-3.38-4.332-4.116-5.272A28.722,28.722,0,0,1,641.836,428.379Zm-19.622,10.293,5.243,4.087a7.5,7.5,0,0,0,2,1.2,2.769,2.769,0,0,0,.578,3.059,2.983,2.983,0,0,0,.532.409,16.761,16.761,0,0,0-2.867,7.245,2.66,2.66,0,0,0-.782-.128,2.763,2.763,0,0,0-2.574,1.756,7.376,7.376,0,0,0-2.259-.561c-2.465-.3-5.144-.635-6.434-.8A28.7,28.7,0,0,1,622.214,438.672ZM615.68,459.7c1.3-.164,3.958-.5,6.4-.795a7.38,7.38,0,0,0,2.259-.56,2.764,2.764,0,0,0,2.574,1.758,2.593,2.593,0,0,0,.852-.152,16.735,16.735,0,0,0,3.037,7.14,2.746,2.746,0,0,0-1.35,3.6,7.29,7.29,0,0,0-2,1.2c-1.886,1.476-3.941,3.07-5,3.9A28.7,28.7,0,0,1,615.68,459.7Z" transform="translate(-589.391 -402.118)"/>
</svg>
