<svg xmlns="http://www.w3.org/2000/svg" width="38.007" height="38.049" viewBox="0 0 38.007 38.049">
  <path id="パス_22" data-name="パス 22" d="M626.694,420.181s-1.452.182-2.74.337a2.823,2.823,0,0,0-.858.215,1.05,1.05,0,0,0-1.387-.584,13.252,13.252,0,0,0-3.246-7.746,1.045,1.045,0,0,0,.6-1.405,2.774,2.774,0,0,0,.758-.455c1.022-.8,2.176-1.7,2.176-1.7s.682-.313-.168-1.162-1.161-.168-1.161-.168-.9,1.157-1.7,2.178a2.782,2.782,0,0,0-.455.759,1.043,1.043,0,0,0-1.409.611,13.238,13.238,0,0,0-7.782-3.181,1.046,1.046,0,0,0-.546-1.464,2.807,2.807,0,0,0,.214-.858c.158-1.288.34-2.74.34-2.74s.261-.7-.94-.7-.94.7-.94.7.182,1.452.34,2.74a2.809,2.809,0,0,0,.214.858,1.056,1.056,0,0,0-.669.979,1.03,1.03,0,0,0,.128.491,13.256,13.256,0,0,0-7.768,3.24,1.036,1.036,0,0,0-.263-.457,1.054,1.054,0,0,0-1.165-.219,2.784,2.784,0,0,0-.455-.759c-.8-1.023-1.7-2.178-1.7-2.178s-.312-.681-1.161.168-.168,1.162-.168,1.162,1.155.9,2.176,1.7a2.835,2.835,0,0,0,.758.455,1.052,1.052,0,0,0,.22,1.165,1.03,1.03,0,0,0,.457.263,13.251,13.251,0,0,0-3.231,7.771,1.041,1.041,0,0,0-1.479.536,2.88,2.88,0,0,0-.859-.215c-1.286-.156-2.738-.337-2.738-.337s-.7-.261-.7.94.7.94.7.94,1.452-.184,2.738-.34a2.8,2.8,0,0,0,.859-.215,1.043,1.043,0,0,0,1.473.54,13.244,13.244,0,0,0,3.185,7.784,1.026,1.026,0,0,0-.4.249,1.048,1.048,0,0,0-.22,1.162,2.862,2.862,0,0,0-.758.455c-1.021.8-2.176,1.7-2.176,1.7s-.682.311.168,1.161,1.161.168,1.161.168.9-1.155,1.7-2.176a2.836,2.836,0,0,0,.455-.759,1.042,1.042,0,0,0,1.41-.617,13.27,13.27,0,0,0,7.767,3.258,1.038,1.038,0,0,0,.56,1.434,2.708,2.708,0,0,0-.214.859c-.158,1.288-.34,2.738-.34,2.738s-.261.7.94.7.938-.7.938-.7-.182-1.45-.338-2.738a2.819,2.819,0,0,0-.214-.859,1.051,1.051,0,0,0,.668-.979,1.04,1.04,0,0,0-.106-.449,13.248,13.248,0,0,0,7.788-3.2,1.036,1.036,0,0,0,.223.334,1.056,1.056,0,0,0,1.165.22,2.834,2.834,0,0,0,.455.759c.8,1.021,1.7,2.176,1.7,2.176s.312.682,1.161-.168.168-1.163.168-1.163-1.154-.9-2.176-1.7a2.855,2.855,0,0,0-.758-.455,1.047,1.047,0,0,0-.221-1.162,1.029,1.029,0,0,0-.332-.224,13.25,13.25,0,0,0,3.2-7.761,1.039,1.039,0,0,0,.4.081,1.052,1.052,0,0,0,.979-.668,2.808,2.808,0,0,0,.858.215c1.288.156,2.74.34,2.74.34s.7.261.7-.94S626.694,420.181,626.694,420.181Zm-18.652,7.958a2.538,2.538,0,0,0-.2.781c-.1.827-.212,1.725-.269,2.186A9.935,9.935,0,0,1,602,428.788c.285-.368.837-1.078,1.349-1.731a2.522,2.522,0,0,0,.415-.689.96.96,0,0,0,1.061-.2.986.986,0,0,0,.188-.275,5.816,5.816,0,0,0,2.477,1.033.95.95,0,0,0-.058.322A.962.962,0,0,0,608.042,428.139Zm1.258-1.2a5.794,5.794,0,0,0,2.5-1,.909.909,0,0,0,.162.225.958.958,0,0,0,1.062.2,2.591,2.591,0,0,0,.415.689l1.387,1.78a9.918,9.918,0,0,1-5.612,2.275c-.058-.457-.17-1.361-.271-2.192a2.582,2.582,0,0,0-.2-.781.943.943,0,0,0,.554-1.2Zm4.02-2.132a.923.923,0,0,0-.2-.149,5.8,5.8,0,0,0,1.074-2.48.956.956,0,0,0,1.1-.586,2.55,2.55,0,0,0,.782.194c.91.112,1.907.236,2.309.287A9.938,9.938,0,0,1,616,427.68c-.346-.271-1.1-.858-1.79-1.4a2.6,2.6,0,0,0-.691-.417A.955.955,0,0,0,613.321,424.808Zm5.076-4.4-2.321.287a2.548,2.548,0,0,0-.782.194.96.96,0,0,0-.892-.608,1.056,1.056,0,0,0-.178.018,5.82,5.82,0,0,0-1.022-2.528.669.669,0,0,0,.12-.1.954.954,0,0,0,.2-1.059,2.6,2.6,0,0,0,.691-.417c.751-.586,1.582-1.232,1.875-1.46A9.938,9.938,0,0,1,618.4,420.406Zm-9.454-6.845c.114-.944.245-1.982.291-2.354a9.936,9.936,0,0,1,5.669,2.34c-.227.291-.874,1.123-1.464,1.875a2.572,2.572,0,0,0-.415.691.959.959,0,0,0-1.062.2,1.013,1.013,0,0,0-.091.112,5.836,5.836,0,0,0-2.532-1.043.848.848,0,0,0,.016-.148.962.962,0,0,0-.609-.894A2.586,2.586,0,0,0,608.942,413.56Zm-.5,4.991a2.608,2.608,0,1,1-2.609,2.607A2.607,2.607,0,0,1,608.443,418.551Zm-.886-7.337c.047.378.176,1.408.289,2.346a2.542,2.542,0,0,0,.2.781.962.962,0,0,0-.608.894.908.908,0,0,0,.016.166,5.819,5.819,0,0,0-2.5,1.07,1.033,1.033,0,0,0-.125-.158.962.962,0,0,0-1.061-.2,2.586,2.586,0,0,0-.415-.691c-.56-.714-1.171-1.5-1.426-1.826A9.949,9.949,0,0,1,607.557,411.214Zm-6.8,3.565,1.816,1.416a2.6,2.6,0,0,0,.691.417.959.959,0,0,0,.2,1.059,1.035,1.035,0,0,0,.184.142,5.805,5.805,0,0,0-.993,2.51.92.92,0,0,0-.271-.044.957.957,0,0,0-.892.608,2.554,2.554,0,0,0-.783-.194c-.854-.105-1.782-.22-2.229-.277A9.941,9.941,0,0,1,600.76,414.779Zm-2.263,7.283c.451-.057,1.371-.172,2.217-.275a2.556,2.556,0,0,0,.783-.194.957.957,0,0,0,.892.609.9.9,0,0,0,.3-.053,5.8,5.8,0,0,0,1.052,2.473.951.951,0,0,0-.467,1.248,2.525,2.525,0,0,0-.691.415c-.653.511-1.365,1.063-1.733,1.351A9.941,9.941,0,0,1,598.5,422.062Z" transform="translate(-589.391 -402.118)" fill="#fff"/>
</svg>
